<svg width="54" height="62" viewBox="0 0 54 62" fill="none" xmlns="http://www.w3.org/2000/svg">
<path fill-rule="evenodd" clip-rule="evenodd" d="M2.18218 4.83591C3.05076 4.39238 4.64315 4.00545 6.798 3.72049C8.90138 3.44234 11.3749 3.28058 13.8875 3.20437C18.9224 3.05167 23.9849 3.24583 26.3331 3.49183C28.8194 3.7523 32.2156 5.59104 35.383 8.18471C38.53 10.7616 41.1097 13.8031 42.1152 16.1012C45.5287 23.9036 44.9488 29.7373 44.1312 37.9613L44.1312 37.9616C44.021 39.07 43.9065 40.2218 43.7969 41.4276C43.3068 46.8186 41.4469 51.8382 38.3101 56.142C37.6434 51.5057 36.7442 47.153 35.7062 42.5858C35.5226 41.778 34.7189 41.272 33.911 41.4556C33.1032 41.6392 32.5972 42.4429 32.7808 43.2507C33.9372 48.3389 34.9044 53.0918 35.5697 58.248C35.5775 58.3084 35.5873 58.3926 35.5983 58.4882L35.5984 58.4893L35.5984 58.4895C35.621 58.6847 35.649 58.9271 35.6772 59.1119C35.7237 59.4161 35.8043 59.8391 35.9923 60.2404C36.1928 60.6684 36.5696 61.1808 37.2442 61.4347C37.8842 61.6755 38.5239 61.5801 39.0429 61.4071C43.6516 59.8709 49.4225 57.5307 53.1256 53.8276C53.7114 53.2418 53.7114 52.2921 53.1256 51.7063C52.5398 51.1205 51.5901 51.1205 51.0043 51.7063C48.5018 54.2087 44.7461 56.0865 41.0145 57.5187C44.3085 52.8549 46.2611 47.4568 46.7845 41.6992C46.8914 40.5237 47.0058 39.3861 47.1172 38.2776C47.9427 30.0679 48.6076 23.4563 44.8636 14.8988C43.5867 11.9801 40.5996 8.57887 37.2837 5.86361C33.9883 3.16512 30.0257 0.862254 26.6457 0.508162C24.1282 0.24442 18.9253 0.050204 13.7966 0.205751C11.2274 0.283671 8.64457 0.450186 6.40471 0.746382C4.21632 1.03577 2.17859 1.46924 0.817848 2.16409C0.080046 2.54084 -0.212644 3.44437 0.164105 4.18217C0.540855 4.91997 1.44438 5.21266 2.18218 4.83591Z" fill="#0C1672"/>
</svg>
