<svg width="262" height="113" viewBox="0 0 262 113" fill="none" xmlns="http://www.w3.org/2000/svg">
<path fill-rule="evenodd" clip-rule="evenodd" d="M256.176 42.9707C246.781 26.1171 235.234 16.7099 221.98 11.1941C208.803 5.71039 194.004 4.10698 178.224 2.698C172.293 2.16839 168.712 1.78334 166.188 1.49852C165.685 1.44174 165.222 1.38867 164.788 1.33904C163.059 1.14098 161.808 0.997671 160.41 0.891648C157.088 0.639543 152.904 0.595263 139.008 0.448195L139.007 0.44819L136.881 0.425662L136.827 0.425086L136.773 0.428434C124.786 1.16915 119.289 1.32823 115.432 1.43984C109.716 1.60527 107.603 1.66642 93.2989 3.36278C92.4762 3.46034 91.8884 4.20633 91.986 5.029C92.0835 5.85166 92.8295 6.43947 93.6522 6.34191C107.848 4.65839 109.827 4.60211 115.415 4.44317C119.226 4.33479 124.716 4.17865 136.904 3.42607L138.719 3.44532C152.883 3.59536 156.961 3.63856 160.183 3.88305C161.519 3.98435 162.701 4.11968 164.42 4.31653C164.858 4.36674 165.332 4.42094 165.852 4.4796C168.397 4.76685 172.002 5.15429 177.958 5.68611C193.784 7.09931 208.137 8.68248 220.827 13.9638C233.441 19.213 244.479 28.1492 253.555 44.4315C259.027 54.246 259.371 62.2039 256.143 69.1824C252.857 76.2878 245.75 82.6532 235.683 88.9146C211.948 103.678 182.496 106.633 155.156 108.281C114.337 110.741 69.7638 110.1 31.4592 94.8533C25.2693 92.3894 16.8659 88.4925 10.8731 83.041C7.88754 80.325 5.57069 77.2855 4.38551 73.9184C3.21218 70.585 3.11308 66.8365 4.70941 62.5884C8.72168 51.9112 18.0934 43.8462 29.1535 37.6504C40.1923 31.4666 52.7017 27.2613 62.6896 24.1983C82.1289 18.2368 101.371 16.4524 121.628 15.6856C122.456 15.6543 123.101 14.9578 123.07 14.13C123.039 13.3021 122.342 12.6565 121.515 12.6878C101.166 13.458 81.6197 15.255 61.81 21.3302C51.7898 24.4031 39.0215 28.6838 27.6873 35.0331C16.3745 41.3704 6.27801 49.8857 1.90114 61.5331C0.0634541 66.4235 0.142049 70.8984 1.55569 74.9145C2.95748 78.897 5.63689 82.3332 8.8544 85.2601C15.2678 91.0944 24.0981 95.1522 30.3498 97.6406C69.3034 113.146 114.44 113.74 155.337 111.275C182.636 109.63 212.812 106.674 237.268 91.462C247.469 85.1166 255.202 78.3649 258.866 70.4417C262.589 62.3915 261.995 53.4093 256.176 42.9707Z" fill="#EB0909"/>
</svg>
