<svg width="58" height="16" viewBox="0 0 58 16" fill="none" xmlns="http://www.w3.org/2000/svg">
<path fill-rule="evenodd" clip-rule="evenodd" d="M6.41627 4.20113C9.1758 3.40402 12.4316 3.21937 15.8485 3.26706C17.5481 3.29078 19.2591 3.37101 20.9473 3.45389L21.2989 3.47119L21.299 3.47119C22.858 3.54798 24.3998 3.62392 25.8544 3.65165C28.9702 3.71106 32.0799 3.75668 35.1856 3.80225C42.1167 3.90393 49.0283 4.00533 55.945 4.25904C56.7729 4.28941 57.4686 3.6429 57.499 2.81503C57.5294 1.98716 56.8829 1.29142 56.055 1.26105C49.1046 1.00611 42.138 0.903877 35.1904 0.801922C32.0927 0.756463 28.9987 0.711059 25.9116 0.652199C24.5043 0.625366 23.0062 0.551613 21.4351 0.474258L21.435 0.474255L21.0944 0.457502C19.4086 0.374736 17.6491 0.291898 15.8903 0.26735C12.3903 0.218499 8.77726 0.39649 5.58373 1.31896C4.78784 1.54886 4.32902 2.38043 4.55892 3.17631C4.78881 3.9722 5.62038 4.43103 6.41627 4.20113ZM1.505 12.2601C0.676578 12.2601 0.00500488 12.9316 0.00500488 13.7601C0.00500488 14.5885 0.676578 15.2601 1.505 15.2601H51.505C52.3334 15.2601 53.005 14.5885 53.005 13.7601C53.005 12.9316 52.3334 12.2601 51.505 12.2601H1.505Z" fill="#0C1672"/>
</svg>
