<svg>
	<symbol id="btn-reverse" viewBox="0 0 40 40" xmlns="http://www.w3.org/2000/svg">
		<path fill-rule="evenodd" clip-rule="evenodd"
			d="M4.81976 1.4483C4.88119 0.622149 5.6007 0.00222038 6.42685 0.0636461C7.81241 0.166665 9.27108 0.463112 10.6018 0.733552L10.6018 0.733554C11.1888 0.852863 11.751 0.96711 12.271 1.05745C13.6365 1.29471 15.0053 1.49568 16.3809 1.66252C16.5658 1.68495 16.7462 1.69068 16.9893 1.69841C17.1484 1.70347 17.3345 1.70939 17.5665 1.7214C18.0328 1.74557 18.7079 1.79829 19.316 2.04061C20.2414 2.40931 20.2714 3.31579 20.267 3.48755C20.2608 3.72976 20.1971 3.9159 20.178 3.97126C20.1276 4.11773 20.0616 4.24387 20.0272 4.30805C19.9454 4.46049 19.8354 4.63837 19.7259 4.8088C19.4995 5.16126 19.1904 5.61271 18.8838 6.05144C18.2775 6.91913 17.6147 7.83132 17.5267 7.94428C16.4084 9.38046 15.1322 10.9175 13.543 12.1168C12.8818 12.6158 11.9412 12.4843 11.4421 11.823C10.9431 11.1618 11.0746 10.2212 11.7359 9.72215C12.9356 8.81679 13.9713 7.61702 15.024 6.27485C14.2387 6.40121 13.3083 6.61087 12.3762 6.88717C11.0989 7.26576 9.93627 7.73501 9.17849 8.21102C6.10968 10.1387 3.61841 12.9154 3.13731 17.3222C2.8629 19.8357 3.32243 23.8216 3.84952 26.5487C5.04522 28.9154 5.95709 30.3808 7.40504 32.2375C10.8617 35.1934 13.1775 36.5272 16.8786 36.9909C17.7007 37.0939 18.2835 37.8438 18.1805 38.6658C18.0776 39.4878 17.3277 40.0706 16.5057 39.9677C11.9455 39.3963 9.08279 37.634 5.33816 34.4171L5.22653 34.3212L5.13567 34.2055C3.45551 32.0649 2.41865 30.3875 1.07642 27.712L0.985554 27.5308L0.946009 27.3321C0.386558 24.5202 -0.176877 20.0368 0.155025 16.9966C0.764324 11.4156 3.99314 7.92547 7.58272 5.67064C8.67429 4.98496 10.1337 4.42286 11.5236 4.01087L11.6061 3.98657C10.9565 3.8711 10.3461 3.74633 9.75734 3.62594L9.75728 3.62593L9.75727 3.62593C8.53331 3.37569 7.40229 3.14445 6.20441 3.05539C5.37826 2.99396 4.75833 2.27444 4.81976 1.4483ZM17.3891 2.8791C17.3892 2.87901 17.3879 2.88161 17.3849 2.88719C17.3875 2.88198 17.389 2.8792 17.3891 2.8791ZM35.2191 38.5906C35.1577 39.4168 34.4382 40.0367 33.612 39.9753C32.2265 39.8723 30.7678 39.5758 29.4371 39.3054L29.4371 39.3054C28.85 39.1861 28.2879 39.0718 27.7679 38.9815C26.4023 38.7442 25.0335 38.5433 23.6579 38.3764C23.473 38.354 23.2927 38.3483 23.0496 38.3405H23.0494C22.8903 38.3355 22.7043 38.3295 22.4724 38.3175C22.0061 38.2934 21.331 38.2406 20.7228 37.9983C19.7974 37.6296 19.7675 36.7231 19.7718 36.5514C19.778 36.3092 19.8417 36.123 19.8608 36.0677C19.9113 35.9212 19.9773 35.7951 20.0117 35.7309C20.0935 35.5785 20.2034 35.4006 20.3129 35.2301C20.5393 34.8777 20.8484 34.4262 21.155 33.9875C21.7614 33.1198 22.4242 32.2076 22.5121 32.0947C23.6305 30.6585 24.9067 29.1215 26.4958 27.9222C27.1571 27.4231 28.0977 27.5546 28.5967 28.2159C29.0957 28.8772 28.9642 29.8178 28.303 30.3168C27.1033 31.2222 26.0675 32.4219 25.0149 33.7641C25.8001 33.6377 26.7306 33.4281 27.6627 33.1518C28.9399 32.7732 30.1026 32.3039 30.8604 31.8279C33.9292 29.9002 36.4204 27.1236 36.9016 22.7167C37.176 20.2032 36.7164 16.2173 36.1893 13.4902C34.9936 11.1235 34.0818 9.65813 32.6338 7.80144C29.1772 4.84557 26.8614 3.5117 23.1602 3.04801C22.3382 2.94503 21.7553 2.19518 21.8583 1.37318C21.9613 0.551184 22.7111 -0.0316983 23.5331 0.0712833C28.0934 0.6426 30.9561 2.40491 34.7007 5.62182L34.8123 5.71771L34.9032 5.83347C36.5833 7.97405 37.6202 9.65142 38.9624 12.327L39.0533 12.5081L39.0928 12.7069C39.6523 15.5187 40.2157 20.0022 39.8838 23.0423C39.2745 28.6234 36.0457 32.1135 32.4561 34.3683C31.3646 35.054 29.9052 35.6161 28.5153 36.0281L28.4328 36.0524C29.0824 36.1678 29.6927 36.2926 30.2815 36.413L30.2816 36.413C31.5055 36.6633 32.6366 36.8945 33.8344 36.9836C34.6606 37.045 35.2805 37.7645 35.2191 38.5906ZM22.6498 37.1598C22.6497 37.1599 22.651 37.1573 22.6539 37.1518L22.6505 37.1585L22.6498 37.1598Z" />
	</symbol>
</svg>	